<svg width="24" height="24" viewBox="0 0 24 24" fill="none" xmlns="http://www.w3.org/2000/svg">
<path d="M20.2415 5.18569C18.7257 4.49018 17.1003 3.97776 15.4008 3.68428C15.3698 3.67861 15.3389 3.69277 15.3229 3.72108C15.1139 4.09289 14.8823 4.57794 14.7202 4.95919C12.8922 4.68553 11.0737 4.68553 9.28321 4.95919C9.12102 4.56947 8.88105 4.09289 8.67107 3.72108C8.65512 3.69371 8.6242 3.67956 8.59325 3.68428C6.89467 3.97682 5.26921 4.48925 3.75248 5.18569C3.73934 5.19136 3.72809 5.2008 3.72062 5.21306C0.637462 9.81923 -0.207144 14.3122 0.207191 18.7494C0.209066 18.7711 0.221252 18.7919 0.238126 18.8051C2.27231 20.299 4.24276 21.2059 6.17662 21.807C6.20757 21.8164 6.24036 21.8051 6.26006 21.7796C6.71751 21.1549 7.12529 20.4962 7.47492 19.8035C7.49556 19.763 7.47586 19.7148 7.43369 19.6988C6.78688 19.4534 6.17099 19.1543 5.57855 18.8146C5.53168 18.7872 5.52793 18.7202 5.57104 18.6881C5.69571 18.5947 5.82042 18.4975 5.93946 18.3993C5.961 18.3814 5.99102 18.3776 6.01634 18.3889C9.90844 20.1659 14.1221 20.1659 17.9683 18.3889C17.9936 18.3767 18.0236 18.3805 18.0461 18.3984C18.1652 18.4965 18.2899 18.5947 18.4155 18.6881C18.4586 18.7202 18.4558 18.7872 18.4089 18.8146C17.8165 19.1609 17.2006 19.4534 16.5528 19.6978C16.5106 19.7139 16.4919 19.763 16.5125 19.8035C16.8697 20.4953 17.2774 21.154 17.7265 21.7787C17.7452 21.8051 17.7789 21.8164 17.8099 21.807C19.7531 21.2059 21.7236 20.299 23.7577 18.8051C23.7756 18.7919 23.7868 18.7721 23.7887 18.7504C24.2846 13.6204 22.9581 9.16432 20.2725 5.214C20.2659 5.2008 20.2547 5.19136 20.2415 5.18569ZM8.05615 16.0476C6.88435 16.0476 5.91883 14.9718 5.91883 13.6506C5.91883 12.3295 6.86563 11.2537 8.05615 11.2537C9.25601 11.2537 10.2122 12.3389 10.1934 13.6506C10.1934 14.9718 9.24663 16.0476 8.05615 16.0476ZM15.9585 16.0476C14.7867 16.0476 13.8212 14.9718 13.8212 13.6506C13.8212 12.3295 14.768 11.2537 15.9585 11.2537C17.1584 11.2537 18.1145 12.3389 18.0958 13.6506C18.0958 14.9718 17.1584 16.0476 15.9585 16.0476Z" fill="#B8B8B8"/>
</svg>
